<?xml version="1.0" encoding="UTF-8"?>
<svg id="_レイヤー_2" data-name="レイヤー_2" xmlns="http://www.w3.org/2000/svg" viewBox="0 0 51.62 10.7">
  <defs>
    <style>
      .cls-1, .cls-2 {
        fill: #80c58f;
      }

      .cls-2 {
        stroke: #fff;
        stroke-linejoin: round;
      }
    </style>
  </defs>
  <g id="_レイヤー_1-2" data-name="レイヤー_1">
    <g>
      <path class="cls-2" d="M8.25,6.76h4.21s.07-2.97.07-2.97h-4.33s-.05-2.11-.05-2.11l6.57.12c0,1-.05,4.73-.12,7.04-1.96.01-4.38.01-6.45.02l.1-2.1ZM19.88,7.85c1.12-.78,1.98-1.48,2.67-2.21-.72-.67-1.44-1.33-2.11-1.93l1.68-1.5c.54.48,1.14,1.03,1.75,1.6.37-.71.67-1.5.94-2.45l2.19.47c-.31,1.37-.82,2.54-1.46,3.57.58.56,1.12,1.1,1.56,1.57l-1.63,1.55c-.38-.4-.84-.86-1.33-1.36-.86.9-1.87,1.66-2.96,2.31l-1.3-1.63ZM31.45,3.38l.72-1.74c.97.22,2.11.64,2.88,1.13l-.77,1.74c-.88-.43-1.79-.8-2.83-1.13ZM32.66,7.41c3.29-1.24,4.22-2.45,5.18-4.82l1.95.88c-.88,2.97-3.09,4.81-6.18,5.88l-.96-1.93ZM45.25,5.8c0-1.7.01-3.6.05-4.86l2.23.08c-.01.77-.01,1.78-.01,2.83.92.4,2.83,1.13,3.61,1.36l-.68,2c-.83-.23-1.93-.67-2.93-1.12,0,1.42.01,2.66.02,3.26h-2.27c-.01-.65-.02-2.03-.02-3.56ZM2.66,2.06l-2.13.98,3.3,7.15,2.13-.98L2.66,2.06ZM.65.5l-.15,2.47,2.13-.98L.65.5ZM.69,1.28l.54-.25,1.24.95-1.86.86.08-1.56Z"/>
      <path class="cls-1" d="M8.25,6.68h4.21s.07-2.97.07-2.97h-4.33s-.05-2.11-.05-2.11l6.57.12c0,1-.05,4.73-.12,7.04-1.96.01-4.38.01-6.45.02l.1-2.1ZM19.88,7.77c1.12-.78,1.98-1.48,2.67-2.21-.72-.67-1.44-1.33-2.11-1.93l1.68-1.5c.54.48,1.14,1.03,1.75,1.6.37-.71.67-1.5.94-2.45l2.19.47c-.31,1.37-.82,2.54-1.46,3.57.58.56,1.12,1.1,1.56,1.57l-1.63,1.55c-.38-.4-.84-.86-1.33-1.36-.86.9-1.87,1.66-2.96,2.31l-1.3-1.63ZM31.45,3.3l.72-1.74c.97.22,2.11.64,2.88,1.13l-.77,1.74c-.88-.43-1.79-.8-2.83-1.13ZM32.66,7.33c3.29-1.24,4.22-2.45,5.18-4.82l1.95.88c-.88,2.97-3.09,4.81-6.18,5.88l-.96-1.93ZM45.25,5.72c0-1.7.01-3.6.05-4.86l2.23.08c-.01.77-.01,1.78-.01,2.83.92.4,2.83,1.13,3.61,1.36l-.68,2c-.83-.23-1.93-.67-2.93-1.12,0,1.42.01,2.66.02,3.26h-2.27c-.01-.65-.02-2.03-.02-3.56ZM2.66,1.98l-2.13.98,3.3,7.15,2.13-.98L2.66,1.98ZM.65.42l-.15,2.47,2.13-.98L.65.42ZM.69,1.2l.54-.25,1.24.95-1.86.86.08-1.56Z"/>
    </g>
  </g>
</svg>