<?xml version="1.0" encoding="UTF-8"?>
<svg id="_レイヤー_2" data-name="レイヤー_2" xmlns="http://www.w3.org/2000/svg" viewBox="0 0 54.56 24.93">
  <defs>
    <style>
      .cls-1 {
        fill: #80c58f;
      }

      .cls-2 {
        fill: #fff;
        stroke: #80c58f;
        stroke-width: .64px;
      }

      .cls-2, .cls-3 {
        stroke-miterlimit: 10;
      }

      .cls-3 {
        fill: none;
        stroke: #fff;
        stroke-width: 2px;
      }
    </style>
  </defs>
  <g id="_レイヤー_1-2" data-name="レイヤー_1">
    <rect class="cls-3" x="1" y="1" width="52.56" height="22.93" rx="4.22" ry="4.22"/>
    <rect class="cls-2" x="1" y="1" width="52.56" height="22.93" rx="4.22" ry="4.22"/>
    <g>
      <g>
        <path class="cls-1" d="M18.42,13.38l.23-2.2c1.08.11,2.03.21,2.93.36l-.29,2.12c-1.3-.2-1.7-.21-2.87-.29ZM18.87,16.23c1-.67,1.94-1.27,2.76-1.82l1.24,1.86c-1.11.8-1.62,1.15-2.77,1.85l-1.23-1.89ZM19.01,9.74l.39-2.14c.99.14,1.79.27,2.74.45l-.39,2.17c-.99-.18-1.76-.32-2.74-.49ZM22.65,7.93l1.89-.68c.23.47.71,1.44,1,2.09l-1.89.83c-.32-.68-.7-1.5-1-2.24ZM23.56,10.68h1.67c.23,0,.44,0,.65-.01.01-1.8.01-3.11.03-4.14h2.43c-.02.89,0,2.67,0,4.14.74,0,1.46.01,2.27.03-.01,1.39-.08,4-.12,7.66h-2.38l.05-1.67h-2.14c0,.52.01,1.08.01,1.67h-2.3c-.11-3.96-.14-6.02-.17-7.67ZM28.24,13.47c0-.24.02-.45.02-.65-.8-.02-1.41.01-2.32.06.01.18.01.38.01.59h2.29ZM28.18,15.42c0-.26.02-.49.02-.7-.67,0-1.38,0-2.21.02,0,.21.01.44.01.68h2.18ZM28.62,9.19c.38-.67.79-1.47,1.11-1.94l1.8.88c-.38.73-.7,1.38-1.09,2.06l-1.82-1Z"/>
        <path class="cls-1" d="M35.77,15.74c.35-.01.7-.03,1.06-.05.24-.64.5-1.35.73-1.99-.94.05-1.8.09-2.53.14l-.08-2.41c1-.05,2.3-.11,3.68-.15,0-.36.02-.8.02-1.26-.94.03-1.83.06-2.61.11l-.09-2.4c.8-.05,1.73-.08,2.71-.11.02-.65.02-1.14.02-1.21l2.56-.06c-.02.36-.02.79-.03,1.23,1.02-.01,1.97-.03,2.79-.05l-.08,2.4c-.8,0-1.74.01-2.73.03-.01.44-.01.85-.01,1.24,1.55-.05,3.02-.09,4.09-.11l-.02,2.41c-1.47.02-3.35.05-5.22.11-.2.58-.44,1.27-.68,1.96.97-.05,1.88-.09,2.62-.14-.11-.29-.18-.55-.23-.71l2.35-.58c.35,1.14.99,3.21,1.12,3.71l-2.27.71c-.03-.12-.12-.36-.21-.7l-6.79.35-.18-2.49Z"/>
      </g>
      <g>
        <polygon class="cls-1" points="15.03 17.97 8.44 17.97 8.07 10.79 15.46 10.79 15.03 17.97"/>
        <path class="cls-1" d="M14.31,8.23l-1.2-.39.05-.16c.05-.14-.03-.29-.17-.34l-.65-.21c-.14-.05-.29.03-.34.17l-.05.16-1.2-.39c-.95-.31-1.98.2-2.29,1.16l7.02,2.31c.31-.95-.2-1.98-1.16-2.29Z"/>
      </g>
    </g>
  </g>
</svg>