<?xml version="1.0" encoding="UTF-8"?>
<svg id="_レイヤー_2" data-name="レイヤー_2" xmlns="http://www.w3.org/2000/svg" viewBox="0 0 95.44 11.83">
  <defs>
    <style>
      .cls-1 {
        fill: #6fb92c;
      }

      .cls-2 {
        fill: #231815;
        stroke: #fff;
        stroke-linejoin: round;
        stroke-width: 1.5px;
      }
    </style>
  </defs>
  <g id="_レイヤー_1-2" data-name="レイヤー_1">
    <g>
      <g>
        <path class="cls-2" d="M1.07,7.11c.8-.37,1.52-.83,2.16-1.33-.29-.22-.58-.42-.9-.65l1.15-1.08c.29.22.59.44.86.66.35-.38.65-.79.9-1.2-.62-.01-1.21-.01-1.98-.01-.35.44-.72.88-1.12,1.28l-1.4-1.01c.97-.97,1.69-1.93,2.27-3.02l1.65.71-.31.49c1.07.01,1.92.01,3.19.02-.1,1.48-.91,2.99-2.19,4.28,1.3-.02,2.72-.04,3.65-.01l-.06,4.28c-1.74-.01-3.49-.01-5.23,0-.02-.49-.05-1.75-.07-2.84-.48.32-.98.62-1.51.89l-1.06-1.46ZM7.19,8.97l.04-1.18c-.59,0-1.24,0-1.82.01,0,.38.01.79.02,1.18.6,0,1.2,0,1.76-.01Z"/>
        <path class="cls-2" d="M12.75,2.67c.56-.02,1.21-.05,1.91-.06-.17-.41-.31-.77-.48-1.22l1.56-.56c.18.55.36,1.04.6,1.74.49,0,1-.01,1.49-.02.26-.54.49-1.14.71-1.68l1.52.67-.44.98c.65,0,1.25-.01,1.79-.01v1.86c-2.27,0-6.01.1-8.58.2l-.07-1.9ZM13.09,5.34c1.8-.04,2.3-.05,4.02-.04-.01,1.25-.04,4.02-.06,5.4h-1.62c0-.43.01-.86.02-1.27h-.78v1.27h-1.56c-.04-1.81-.04-3.81-.02-5.36ZM15.5,7.21c0-.18.01-.35.01-.52-.29-.01-.54,0-.85,0v.52h.84ZM15.46,8.57c0-.17.01-.34.01-.49h-.82c.01.17.01.32.01.49h.79ZM17.67,5.77h1.46c.02.89.05,1.7.1,2.73l-1.45.05c-.07-.77-.11-1.99-.11-2.78ZM19.79,5.2h1.58s0,5.42,0,5.42h-1.6c.02-.79.02-4.67.01-5.42Z"/>
        <path class="cls-2" d="M26.63,8.67c-.07-.78.37-1.62,1.28-2.4-.23-.11-.48-.19-.79-.28.08-.72.14-1.29.2-1.81-.46,0-.95-.01-1.51-.02l.08-1.82h1.62c.04-.32.07-.64.1-.92l1.98.13c-.04.24-.06.49-.1.76.5-.01,1-.04,1.49-.07l.05,1.79c-.52.05-1.13.08-1.77.11-.05.34-.08.65-.12.95.14.06.25.11.36.16.58-.3,1.12-.53,1.67-.72l.46,1.73c-.19.06-.38.13-.59.2.25.32.42.55.56.77l-1.4,1.08c-.26-.38-.54-.72-.82-1-.59.37-.92.76-.91,1.04.02.54,1.09.67,3.08.44l.04,1.79c-.46.05-.89.07-1.3.07-2.23,0-3.54-.71-3.66-1.97Z"/>
        <path class="cls-2" d="M35.99,5.67c.38-.29.72-.53,1.01-.76-.3-.24-.55-.43-.88-.71l.8-1.13c.42.35.76.62,1.12.94.31-.31.54-.61.74-.98-.65,0-1.32.01-1.97.05v-1.64c.85-.05,2.22-.08,3.55-.08h.48c-.07,1.12-.35,2.01-.8,2.79.74-.04,1.6-.06,2.28-.07-.42-.52-.82-1.1-1.2-1.77l1.4-.85c.22.35.42.65.61.91.18-.26.35-.52.58-.82l1.18.73c-.32.46-.59.8-.89,1.2.13.14.28.29.42.42.32-.47.54-.79.86-1.24l1.18.83c-.38.54-.68.94-.94,1.27.22.16.44.3.71.47l-.89,1.42c-.94-.54-1.73-1.14-2.44-1.88v.85c-1.31.01-2.46.02-3.65.08v-.49c-.6.64-1.34,1.21-2.24,1.8l-1.03-1.33ZM38.03,9.52c.48-.02.95-.04,1.43-.05-.05-.23-.08-.44-.12-.66h-.72c-.04-.74-.08-1.64-.11-2.71,2.18-.02,3.9-.04,5.22-.02-.01.66-.11,1.96-.14,2.73h-.62c-.04.2-.07.4-.12.61.48-.01.94-.01,1.38-.01v1.58c-1.7,0-4.03.05-6.08.08l-.11-1.56ZM40.11,7.75c.91,0,1.28,0,2.03-.01.02-.2.04-.41.04-.59-.71-.02-1.34,0-2.08.04,0,.19,0,.38.01.56ZM40.8,9.44c.23-.01.47-.01.7-.01.07-.22.12-.41.17-.62h-1.03c.05.22.1.41.17.64Z"/>
        <path class="cls-2" d="M48.16,9.21l.48-.05c-.08-.42-.17-.8-.23-1.24l.89-.14c.07.47.16.88.23,1.28l.19-.02c-.02-.56-.02-1.09-.02-1.6l-1.16.07v-1.19c.41-.04.79-.06,1.16-.08,0-.22.01-.43.01-.65-.19.01-.4.04-.61.05l-.04-.95-.37.43-1.03-1.16c1.12-1.21,1.79-1.98,2.78-3.05,1.06.98,1.45,1.36,2.48,2.18l-1.07,1.26c-.49-.4-.86-.76-1.37-1.24-.44.48-.88.96-1.3,1.43,1.13-.07,1.96-.11,2.77-.1v1.07c-.28,0-.54.01-.82.01-.01.22-.01.43-.01.66.37-.01.77-.01,1.19-.01v1.19c-.42.01-.82.02-1.19.02,0,.47.01.95.02,1.46l.25-.04c.02-.37.05-.72.06-1.12l.79.11c-.01.31-.02.6-.05.9l.32-.05.12,1.52c-1.37.2-2.88.38-4.27.55l-.23-1.54ZM52.72,8.05l.47-1.32c.61.24.89.34,1.43.58l-.52,1.34c-.72-.34-.9-.42-1.38-.6ZM52.76,9.33c.64-.3.86-.4,1.61-.65l.41,1.27c-.53.19-.77.28-1.55.67l-.47-1.3ZM54.79,6.57c-.72.02-1.38.06-1.77.1l-.1-1.73c.77-.04,1.75-.08,2.7-.11l.04-.55c-.78,0-1.37.04-2.19.1l-.05-1.08c.96-.06,1.6-.07,2.29-.08,0-.16.01-.32.02-.48-.71.01-1.42.04-2.31.1l-.06-1.57c1.42-.08,3.25-.16,4.21-.05-.04,1.66-.1,2.43-.17,3.57h.74l-.05,1.75c-.43,0-1.07,0-1.76.01l.04,2.96.43-.86c.72.37.96.48,1.62.67l-.48,1.36c-.71-.31-1.03-.44-1.56-.79,0,.32.01.61.01.86l-1.52.02c-.04-1.06-.07-2.85-.07-4.2ZM56.44,7.35c.49-.32.83-.47,1.39-.76l.61,1.22c-.48.3-.71.42-1.38.8l-.62-1.27Z"/>
        <path class="cls-2" d="M62.21,5.69c0-1.1.16-2.35.47-3.63l2.1.26c-.86,3.21-.58,5.79.74,5.79.65,0,1.15-.25,1.62-.83l1.56,1.31c-.9,1.1-1.93,1.62-3.24,1.62-2.1,0-3.25-1.59-3.25-4.52Z"/>
        <path class="cls-2" d="M77.07,4.43c-1.04.04-2.34.04-3.54,0l.05-1.95c2.39.06,4.62.07,6.16.01l.48,1.28c-3.03,2.61-3.2,4.14-.56,5.03l-1.33,1.63c-2.81-1.01-3.41-3.84-1.26-6Z"/>
        <path class="cls-2" d="M91.95,6.84c-.11-1.1-1.16-2.11-3.43-.65-.01,1.42.02,2.89.08,3.69l-1.92.07c-.04-.55-.06-1.36-.07-2.36-.37.34-.74.71-.96.92l-1.39-1.31c.62-.62,1.61-1.46,2.34-2,.01-.16.01-.29.01-.76-.62.05-1.35.08-1.86.13v-1.83c.79-.01,1.46-.04,1.92-.07.01-.54.02-.82.05-1.1l1.91.05c-.04.68-.07,1.51-.08,2.45,3.23-1.34,5.79.4,5.22,3.45.38.23.74.48.94.67l-.89,1.48c-.18-.13-.43-.29-.7-.43-.43.67-1.07,1.03-1.83,1.03h-.17c-3.11-.2-1.91-4.37.84-3.43ZM91.84,8.49c-.05-.2-.19-.29-.35-.3-.34-.01-.77.36-.5.66.31.36.92-.02.85-.36Z"/>
      </g>
      <g>
        <path class="cls-1" d="M1.07,7.11c.8-.37,1.52-.83,2.16-1.33-.29-.22-.58-.42-.9-.65l1.15-1.08c.29.22.59.44.86.66.35-.38.65-.79.9-1.2-.62-.01-1.21-.01-1.98-.01-.35.44-.72.88-1.12,1.28l-1.4-1.01c.97-.97,1.69-1.93,2.27-3.02l1.65.71-.31.49c1.07.01,1.92.01,3.19.02-.1,1.48-.91,2.99-2.19,4.28,1.3-.02,2.72-.04,3.65-.01l-.06,4.28c-1.74-.01-3.49-.01-5.23,0-.02-.49-.05-1.75-.07-2.84-.48.32-.98.62-1.51.89l-1.06-1.46ZM7.19,8.97l.04-1.18c-.59,0-1.24,0-1.82.01,0,.38.01.79.02,1.18.6,0,1.2,0,1.76-.01Z"/>
        <path class="cls-1" d="M12.75,2.67c.56-.02,1.21-.05,1.91-.06-.17-.41-.31-.77-.48-1.22l1.56-.56c.18.55.36,1.04.6,1.74.49,0,1-.01,1.49-.02.26-.54.49-1.14.71-1.68l1.52.67-.44.98c.65,0,1.25-.01,1.79-.01v1.86c-2.27,0-6.01.1-8.58.2l-.07-1.9ZM13.09,5.34c1.8-.04,2.3-.05,4.02-.04-.01,1.25-.04,4.02-.06,5.4h-1.62c0-.43.01-.86.02-1.27h-.78v1.27h-1.56c-.04-1.81-.04-3.81-.02-5.36ZM15.5,7.21c0-.18.01-.35.01-.52-.29-.01-.54,0-.85,0v.52h.84ZM15.46,8.57c0-.17.01-.34.01-.49h-.82c.01.17.01.32.01.49h.79ZM17.67,5.77h1.46c.02.89.05,1.7.1,2.73l-1.45.05c-.07-.77-.11-1.99-.11-2.78ZM19.79,5.2h1.58s0,5.42,0,5.42h-1.6c.02-.79.02-4.67.01-5.42Z"/>
        <path class="cls-1" d="M26.63,8.67c-.07-.78.37-1.62,1.28-2.4-.23-.11-.48-.19-.79-.28.08-.72.14-1.29.2-1.81-.46,0-.95-.01-1.51-.02l.08-1.82h1.62c.04-.32.07-.64.1-.92l1.98.13c-.04.24-.06.49-.1.76.5-.01,1-.04,1.49-.07l.05,1.79c-.52.05-1.13.08-1.77.11-.05.34-.08.65-.12.95.14.06.25.11.36.16.58-.3,1.12-.53,1.67-.72l.46,1.73c-.19.06-.38.13-.59.2.25.32.42.55.56.77l-1.4,1.08c-.26-.38-.54-.72-.82-1-.59.37-.92.76-.91,1.04.02.54,1.09.67,3.08.44l.04,1.79c-.46.05-.89.07-1.3.07-2.23,0-3.54-.71-3.66-1.97Z"/>
        <path class="cls-1" d="M35.99,5.67c.38-.29.72-.53,1.01-.76-.3-.24-.55-.43-.88-.71l.8-1.13c.42.35.76.62,1.12.94.31-.31.54-.61.74-.98-.65,0-1.32.01-1.97.05v-1.64c.85-.05,2.22-.08,3.55-.08h.48c-.07,1.12-.35,2.01-.8,2.79.74-.04,1.6-.06,2.28-.07-.42-.52-.82-1.1-1.2-1.77l1.4-.85c.22.35.42.65.61.91.18-.26.35-.52.58-.82l1.18.73c-.32.46-.59.8-.89,1.2.13.14.28.29.42.42.32-.47.54-.79.86-1.24l1.18.83c-.38.54-.68.94-.94,1.27.22.16.44.3.71.47l-.89,1.42c-.94-.54-1.73-1.14-2.44-1.88v.85c-1.31.01-2.46.02-3.65.08v-.49c-.6.64-1.34,1.21-2.24,1.8l-1.03-1.33ZM38.03,9.52c.48-.02.95-.04,1.43-.05-.05-.23-.08-.44-.12-.66h-.72c-.04-.74-.08-1.64-.11-2.71,2.18-.02,3.9-.04,5.22-.02-.01.66-.11,1.96-.14,2.73h-.62c-.04.2-.07.4-.12.61.48-.01.94-.01,1.38-.01v1.58c-1.7,0-4.03.05-6.08.08l-.11-1.56ZM40.11,7.75c.91,0,1.28,0,2.03-.01.02-.2.04-.41.04-.59-.71-.02-1.34,0-2.08.04,0,.19,0,.38.01.56ZM40.8,9.44c.23-.01.47-.01.7-.01.07-.22.12-.41.17-.62h-1.03c.05.22.1.41.17.64Z"/>
        <path class="cls-1" d="M48.16,9.21l.48-.05c-.08-.42-.17-.8-.23-1.24l.89-.14c.07.47.16.88.23,1.28l.19-.02c-.02-.56-.02-1.09-.02-1.6l-1.16.07v-1.19c.41-.04.79-.06,1.16-.08,0-.22.01-.43.01-.65-.19.01-.4.04-.61.05l-.04-.95-.37.43-1.03-1.16c1.12-1.21,1.79-1.98,2.78-3.05,1.06.98,1.45,1.36,2.48,2.18l-1.07,1.26c-.49-.4-.86-.76-1.37-1.24-.44.48-.88.96-1.3,1.43,1.13-.07,1.96-.11,2.77-.1v1.07c-.28,0-.54.01-.82.01-.01.22-.01.43-.01.66.37-.01.77-.01,1.19-.01v1.19c-.42.01-.82.02-1.19.02,0,.47.01.95.02,1.46l.25-.04c.02-.37.05-.72.06-1.12l.79.11c-.01.31-.02.6-.05.9l.32-.05.12,1.52c-1.37.2-2.88.38-4.27.55l-.23-1.54ZM52.72,8.05l.47-1.32c.61.24.89.34,1.43.58l-.52,1.34c-.72-.34-.9-.42-1.38-.6ZM52.76,9.33c.64-.3.86-.4,1.61-.65l.41,1.27c-.53.19-.77.28-1.55.67l-.47-1.3ZM54.79,6.57c-.72.02-1.38.06-1.77.1l-.1-1.73c.77-.04,1.75-.08,2.7-.11l.04-.55c-.78,0-1.37.04-2.19.1l-.05-1.08c.96-.06,1.6-.07,2.29-.08,0-.16.01-.32.02-.48-.71.01-1.42.04-2.31.1l-.06-1.57c1.42-.08,3.25-.16,4.21-.05-.04,1.66-.1,2.43-.17,3.57h.74l-.05,1.75c-.43,0-1.07,0-1.76.01l.04,2.96.43-.86c.72.37.96.48,1.62.67l-.48,1.36c-.71-.31-1.03-.44-1.56-.79,0,.32.01.61.01.86l-1.52.02c-.04-1.06-.07-2.85-.07-4.2ZM56.44,7.35c.49-.32.83-.47,1.39-.76l.61,1.22c-.48.3-.71.42-1.38.8l-.62-1.27Z"/>
        <path class="cls-1" d="M62.21,5.69c0-1.1.16-2.35.47-3.63l2.1.26c-.86,3.21-.58,5.79.74,5.79.65,0,1.15-.25,1.62-.83l1.56,1.31c-.9,1.1-1.93,1.62-3.24,1.62-2.1,0-3.25-1.59-3.25-4.52Z"/>
        <path class="cls-1" d="M77.07,4.43c-1.04.04-2.34.04-3.54,0l.05-1.95c2.39.06,4.62.07,6.16.01l.48,1.28c-3.03,2.61-3.2,4.14-.56,5.03l-1.33,1.63c-2.81-1.01-3.41-3.84-1.26-6Z"/>
        <path class="cls-1" d="M91.95,6.84c-.11-1.1-1.16-2.11-3.43-.65-.01,1.42.02,2.89.08,3.69l-1.92.07c-.04-.55-.06-1.36-.07-2.36-.37.34-.74.71-.96.92l-1.39-1.31c.62-.62,1.61-1.46,2.34-2,.01-.16.01-.29.01-.76-.62.05-1.35.08-1.86.13v-1.83c.79-.01,1.46-.04,1.92-.07.01-.54.02-.82.05-1.1l1.91.05c-.04.68-.07,1.51-.08,2.45,3.23-1.34,5.79.4,5.22,3.45.38.23.74.48.94.67l-.89,1.48c-.18-.13-.43-.29-.7-.43-.43.67-1.07,1.03-1.83,1.03h-.17c-3.11-.2-1.91-4.37.84-3.43ZM91.84,8.49c-.05-.2-.19-.29-.35-.3-.34-.01-.77.36-.5.66.31.36.92-.02.85-.36Z"/>
      </g>
    </g>
  </g>
</svg>