<?xml version="1.0" encoding="UTF-8"?>
<svg id="_レイヤー_2" data-name="レイヤー_2" xmlns="http://www.w3.org/2000/svg" viewBox="0 0 127.87 11.24">
  <defs>
    <style>
      .cls-1, .cls-2 {
        fill: #6fb92c;
      }

      .cls-2 {
        stroke: #fff;
        stroke-linejoin: round;
        stroke-width: 1.5px;
      }
    </style>
  </defs>
  <g id="_レイヤー_1-2" data-name="レイヤー_1">
    <g>
      <g>
        <path class="cls-2" d="M1.84,8.46c-.28.06-.55.11-.82.16l-.28-1.7c.32-.07.68-.13,1.06-.22-.01-.61-.02-1.24-.02-1.83-.4,0-.72.01-.95.01l-.02-1.68c.34-.01.65-.02.95-.02,0-.72,0-1.34.01-1.8h1.69c-.01.41-.01,1.03,0,1.76.25,0,.53-.01.82-.01l.02.7c.65-1.01,1.48-2.3,1.94-3.07l1.27.86c-.16.24-.38.6-.65,1.01h1.99l-.8-.53c.12-.19.59-.86.79-1.16l1.15.7c-.22.31-.43.65-.66,1,.36-.01.73-.01,1.16-.01l.02,1.7c-.31,0-.65,0-.98-.01,0,.16.01.37.01.61h.83l.02,1.24h-.83c0,.18,0,.35.01.53h.79l.02,1.24h-.79c0,.28.01.52.01.72.34-.01.71-.01,1.15-.01l.02,1.7c-1.06-.01-1.99-.01-3.26,0h-1.79c-.06-2.72-.1-4.39-.11-5.76-.19.29-.34.53-.42.66l-.91-.68v.26c-.26.01-.55.01-.84.02.01.49.02,1,.02,1.5.34-.07.65-.16.94-.24l.35,1.65c-.41.12-.83.24-1.25.34.02.91.05,1.7.06,2.22l-1.7.05c-.01-.47-.04-1.13-.05-1.88ZM8.22,4.91l-.02-.61h-.77c0,.2,0,.41.01.61h.78ZM8.26,6.67v-.53h-.8c0,.18.01.35.01.53h.79ZM7.5,8.63h.79v-.72h-.8c0,.25.01.49.01.72Z"/>
        <path class="cls-2" d="M14.97,5.67c0-1.1.16-2.35.47-3.63l2.1.26c-.86,3.21-.58,5.79.74,5.79.65,0,1.15-.25,1.62-.83l1.56,1.31c-.9,1.1-1.93,1.62-3.24,1.62-2.1,0-3.25-1.6-3.25-4.52Z"/>
        <path class="cls-2" d="M31.47,8.41c1.16-1.33,1.03-2.91-.29-3.59-.64,2.79-2.24,4.57-3.87,4.28-1.21-.22-1.94-1.1-1.94-2.36,0-2.18,1.98-4.11,4.53-4.11s4.39,1.51,4.39,3.9c0,1.1-.44,2.16-1.22,2.94l-1.6-1.06ZM29.3,4.58c-1.37.17-2.12,1.25-2.15,2,0,.28.07.66.49.73.43.08,1.25-1.26,1.66-2.73Z"/>
        <path class="cls-2" d="M41.09,5.49c-.79.88-1.49,1.72-2.24,2.7l-1.76-1.33c.96-1.16,2.31-2.81,3.79-4.37,2.25,1.75,4.19,3.35,6.01,4.7l-1.37,1.75c-1.28-.88-3-2.28-4.43-3.45ZM43.55,2.56l1.08-.1c.06.46.11,1.17.13,1.52l-1.08.1c-.02-.4-.08-1.07-.13-1.52ZM45.19,2.44l1.06-.1c.06.46.12,1.16.14,1.52l-1.09.11c-.02-.44-.08-1.1-.11-1.54Z"/>
        <path class="cls-2" d="M54.16,8.02c-.95.98-2.06,1.74-3.24,2.13l-.86-1.79c1.68-.71,3.2-2.35,3.95-3.98-1.31.01-2.69.1-3.63.18l-.2-2.05c1.13-.08,3.17-.18,4.92-.18.66,0,1.27.02,1.79.05-.13,1.42-.66,2.81-1.45,4.03.78.85,1.82,1.67,2.52,2.11l-1.19,1.74c-1.1-.74-1.9-1.47-2.59-2.24Z"/>
        <path class="cls-2" d="M63.59,6.6c0-1.7.01-3.6.05-4.86l2.23.08c-.01.77-.01,1.78-.01,2.83.92.4,2.83,1.13,3.61,1.36l-.68,2c-.83-.23-1.93-.67-2.93-1.12,0,1.42.01,2.66.02,3.26h-2.27c-.01-.65-.02-2.03-.02-3.56Z"/>
        <path class="cls-2" d="M73.77,5.5l.68-1.49c.85.41,1.57.71,2.46.95l-.62,1.55c-.79-.25-1.78-.62-2.52-1.01ZM74.72,2.98l.73-1.43c.84.44,1.52.77,2.41,1.13l-.7,1.44c-.78-.29-1.74-.73-2.45-1.14ZM75.05,8.21c3.36-1.21,4.55-2.49,5.62-4.58l1.8.94c-1.03,2.93-3.48,4.68-6.61,5.58l-.82-1.93Z"/>
        <path class="cls-2" d="M87.7,8.05c.86,0,1.68.01,2.53.01.01-.18.01-.37.01-.58-.85-.02-1.76-.02-2.6,0v-1.38c.88-.01,1.81-.01,2.64,0,0-.22.01-.42.01-.61-.91,0-1.78-.01-2.71-.01l-.04-1.63c1.61.02,3.01.06,4.53.08,0,.76-.04,4.02-.08,5.76-1.48.01-2.81.01-4.37.02l.07-1.67Z"/>
        <path class="cls-2" d="M98.15,5.05l1.54-.05c.04.62.12,1.37.26,1.93l-1.58.19c-.11-.5-.22-1.49-.22-2.08ZM100.34,4.95l1.52-.06c.06.55.16,1.31.28,1.8l-1.55.18c-.12-.49-.23-1.34-.25-1.92ZM100.98,9.29c1.33-.95,2.04-2.5,2.29-4.17l1.75.23c-.23,1.97-1.1,3.96-2.83,5.15l-1.21-1.2Z"/>
        <path class="cls-2" d="M111.59,6.6c0-1.7.01-3.6.05-4.86l2.23.08c-.01.77-.01,1.78-.01,2.83.92.4,2.83,1.13,3.61,1.36l-.68,2c-.83-.23-1.93-.67-2.93-1.12,0,1.42.01,2.66.02,3.26h-2.27c-.01-.65-.02-2.03-.02-3.56Z"/>
        <path class="cls-2" d="M124.5,8.05l2.3-.06c.02.82.02,1.25.06,2.06l-2.33.06c-.02-.8-.01-1.25-.04-2.06ZM124.68,1.96h2.43c-.16,1.57-.3,3.41-.34,4.99l-2.19.11c-.02-1.69.02-3.78.1-5.1Z"/>
      </g>
      <g>
        <path class="cls-1" d="M1.84,8.46c-.28.06-.55.11-.82.16l-.28-1.7c.32-.07.68-.13,1.06-.22-.01-.61-.02-1.24-.02-1.83-.4,0-.72.01-.95.01l-.02-1.68c.34-.01.65-.02.95-.02,0-.72,0-1.34.01-1.8h1.69c-.01.41-.01,1.03,0,1.76.25,0,.53-.01.82-.01l.02.7c.65-1.01,1.48-2.3,1.94-3.07l1.27.86c-.16.24-.38.6-.65,1.01h1.99l-.8-.53c.12-.19.59-.86.79-1.16l1.15.7c-.22.31-.43.65-.66,1,.36-.01.73-.01,1.16-.01l.02,1.7c-.31,0-.65,0-.98-.01,0,.16.01.37.01.61h.83l.02,1.24h-.83c0,.18,0,.35.01.53h.79l.02,1.24h-.79c0,.28.01.52.01.72.34-.01.71-.01,1.15-.01l.02,1.7c-1.06-.01-1.99-.01-3.26,0h-1.79c-.06-2.72-.1-4.39-.11-5.76-.19.29-.34.53-.42.66l-.91-.68v.26c-.26.01-.55.01-.84.02.01.49.02,1,.02,1.5.34-.07.65-.16.94-.24l.35,1.65c-.41.12-.83.24-1.25.34.02.91.05,1.7.06,2.22l-1.7.05c-.01-.47-.04-1.13-.05-1.88ZM8.22,4.91l-.02-.61h-.77c0,.2,0,.41.01.61h.78ZM8.26,6.67v-.53h-.8c0,.18.01.35.01.53h.79ZM7.5,8.63h.79v-.72h-.8c0,.25.01.49.01.72Z"/>
        <path class="cls-1" d="M14.97,5.67c0-1.1.16-2.35.47-3.63l2.1.26c-.86,3.21-.58,5.79.74,5.79.65,0,1.15-.25,1.62-.83l1.56,1.31c-.9,1.1-1.93,1.62-3.24,1.62-2.1,0-3.25-1.6-3.25-4.52Z"/>
        <path class="cls-1" d="M31.47,8.41c1.16-1.33,1.03-2.91-.29-3.59-.64,2.79-2.24,4.57-3.87,4.28-1.21-.22-1.94-1.1-1.94-2.36,0-2.18,1.98-4.11,4.53-4.11s4.39,1.51,4.39,3.9c0,1.1-.44,2.16-1.22,2.94l-1.6-1.06ZM29.3,4.58c-1.37.17-2.12,1.25-2.15,2,0,.28.07.66.49.73.43.08,1.25-1.26,1.66-2.73Z"/>
        <path class="cls-1" d="M41.09,5.49c-.79.88-1.49,1.72-2.24,2.7l-1.76-1.33c.96-1.16,2.31-2.81,3.79-4.37,2.25,1.75,4.19,3.35,6.01,4.7l-1.37,1.75c-1.28-.88-3-2.28-4.43-3.45ZM43.55,2.56l1.08-.1c.06.46.11,1.18.13,1.52l-1.08.1c-.02-.4-.08-1.07-.13-1.52ZM45.19,2.44l1.06-.1c.06.46.12,1.16.14,1.52l-1.09.11c-.02-.44-.08-1.1-.11-1.54Z"/>
        <path class="cls-1" d="M54.16,8.02c-.95.98-2.06,1.74-3.24,2.13l-.86-1.79c1.68-.71,3.2-2.35,3.95-3.98-1.31.01-2.69.1-3.63.18l-.2-2.05c1.13-.08,3.17-.18,4.92-.18.66,0,1.27.02,1.79.05-.13,1.42-.66,2.81-1.45,4.03.78.85,1.82,1.67,2.52,2.11l-1.19,1.74c-1.1-.74-1.9-1.47-2.59-2.24Z"/>
        <path class="cls-1" d="M63.59,6.6c0-1.7.01-3.6.05-4.86l2.23.08c-.01.77-.01,1.78-.01,2.83.92.4,2.83,1.13,3.61,1.36l-.68,2c-.83-.23-1.93-.67-2.93-1.12,0,1.42.01,2.66.02,3.26h-2.27c-.01-.65-.02-2.03-.02-3.56Z"/>
        <path class="cls-1" d="M73.77,5.5l.68-1.49c.85.41,1.57.71,2.46.95l-.62,1.55c-.79-.25-1.78-.62-2.52-1.01ZM74.72,2.98l.73-1.43c.84.44,1.52.77,2.41,1.13l-.7,1.44c-.78-.29-1.74-.73-2.45-1.14ZM75.05,8.21c3.36-1.21,4.55-2.49,5.62-4.58l1.8.94c-1.03,2.93-3.48,4.68-6.61,5.58l-.82-1.93Z"/>
        <path class="cls-1" d="M87.7,8.05c.86,0,1.68.01,2.53.01.01-.18.01-.37.01-.58-.85-.02-1.76-.02-2.6,0v-1.38c.88-.01,1.81-.01,2.64,0,0-.22.01-.42.01-.61-.91,0-1.78-.01-2.71-.01l-.04-1.63c1.61.02,3.01.06,4.53.08,0,.76-.04,4.02-.08,5.76-1.48.01-2.81.01-4.37.02l.07-1.67Z"/>
        <path class="cls-1" d="M98.15,5.06l1.54-.05c.04.62.12,1.37.26,1.93l-1.58.19c-.11-.5-.22-1.49-.22-2.08ZM100.34,4.95l1.52-.06c.06.55.16,1.31.28,1.8l-1.55.18c-.12-.49-.23-1.34-.25-1.92ZM100.98,9.29c1.33-.95,2.04-2.5,2.29-4.17l1.75.23c-.23,1.97-1.1,3.96-2.83,5.15l-1.21-1.2Z"/>
        <path class="cls-1" d="M111.59,6.6c0-1.7.01-3.6.05-4.86l2.23.08c-.01.77-.01,1.78-.01,2.83.92.4,2.83,1.13,3.61,1.36l-.68,2c-.83-.23-1.93-.67-2.93-1.12,0,1.42.01,2.66.02,3.26h-2.27c-.01-.65-.02-2.03-.02-3.56Z"/>
        <path class="cls-1" d="M124.5,8.05l2.3-.06c.02.82.02,1.25.06,2.06l-2.33.06c-.02-.8-.01-1.25-.04-2.06ZM124.68,1.96h2.43c-.16,1.57-.3,3.41-.34,4.99l-2.19.11c-.02-1.69.02-3.78.1-5.1Z"/>
      </g>
    </g>
  </g>
</svg>