<?xml version="1.0" encoding="UTF-8"?>
<svg id="_レイヤー_2" data-name="レイヤー_2" xmlns="http://www.w3.org/2000/svg" viewBox="0 0 73.28 11.27">
  <defs>
    <style>
      .cls-1, .cls-2 {
        fill: #80c58f;
      }

      .cls-2 {
        stroke: #fff;
        stroke-linejoin: round;
      }
    </style>
  </defs>
  <g id="_レイヤー_1-2" data-name="レイヤー_1">
    <g>
      <path class="cls-2" d="M15.16.97c2.53-.08,4.13-.11,5.54-.11,1.26,0,2.49.02,3.63.1-.04,1.25-.05,2.46-.19,3.35l-1.94-.18c.05-.52.13-1.02.16-1.62-1.55-.05-3.12-.01-5.28.07.01.6.02,1.22.05,1.71l-1.86.05c-.07-.86-.1-2.31-.11-3.37ZM19.57,10.02c.16-.3.28-.62.37-.95-1.43.04-2.82.06-4.05.1l.02-1.63c1.4-.04,2.87-.07,4.33-.1.01-.18.04-.36.04-.54-.72,0-1.62.02-2.94.06.08-1.26.2-2.72.32-3.98h1.62c-.01.18-.04.37-.05.58.92-.07,1.68-.11,2.59-.12v1.38c-1.02.02-1.81.06-2.71.12-.01.2-.02.4-.05.59l3.02-.06c.04.6.01,1.28-.06,1.97.64-.01,1.27,0,1.88,0v1.61c-.67,0-1.39,0-2.13.01-.12.59-.28,1.12-.46,1.5l-1.75-.53ZM27.6,8.02h8.26v1.44h-1.2c.16.24.3.44.47.7l-1.45.61c-.3-.44-.6-.92-.84-1.31h-2.22c-.28.5-.42.85-.62,1.29l-1.52-.47c.16-.3.26-.54.4-.83h-1.27v-1.44ZM28.95,3.08c1.39-.01,1.64-.01,1.83-.01,0-.18-.01-.34-.02-.48h-2.45v-1.44h2.42v-.47h1.75c0,.18,0,.32-.01.47h2.79v1.44h-2.77c0,.13.01.29.02.46.72,0,1.4.01,2.11.02-.01.98-.05,4.13-.08,4.57h-5.47c-.06-1.37-.12-3.29-.13-4.56ZM32.89,4.59c.01-.13.01-.25.01-.35-.76-.01-1.42,0-2.21.04v.31h2.19ZM30.72,5.53c.8-.01,1.45-.01,2.15,0,.01-.12.01-.24.01-.35h-2.17c.01.12.01.24.01.35ZM30.75,6.47h2.1c0-.12.01-.23.01-.35h-2.12c.01.12.01.24.01.35ZM41.33,8.36c-.07-.78.37-1.62,1.28-2.4-.23-.11-.48-.19-.79-.28.08-.72.14-1.29.2-1.81-.46,0-.95-.01-1.51-.02l.08-1.82h1.62c.04-.32.07-.64.1-.92l1.98.13c-.04.24-.06.49-.1.76.5-.01,1-.04,1.49-.07l.05,1.79c-.52.05-1.13.08-1.77.11-.05.34-.08.65-.12.95.14.06.25.11.36.16.58-.3,1.12-.53,1.67-.72l.46,1.73c-.19.06-.38.13-.59.2.25.32.42.55.56.77l-1.4,1.08c-.26-.38-.54-.72-.82-1-.59.37-.92.76-.91,1.04.02.54,1.09.67,3.08.44l.04,1.79c-.46.05-.89.07-1.3.07-2.23,0-3.54-.71-3.66-1.97ZM51.02,8.91l.78-1.61c.19.1.37.18.55.26.13-.24.23-.44.29-.61-.22-.17-.46-.32-.71-.5.11-.29.2-.65.3-.89h-1.07s-.07-1.7-.07-1.7c.94-.06,1.94-.04,2.88,0-.11.76-.26,1.3-.49,2.13.25.22.53.47.89.77-.26.65-.4.98-.6,1.43,1.76.67,3.17.72,6.39.2l.34,1.76c-1.5.23-2.71.34-3.77.34-2.19,0-3.68-.5-5.71-1.58ZM51.23,2.64l.43-1.62c.55.12,1.69.37,2.22.54l-.41,1.62c-.59-.13-1.68-.42-2.24-.54ZM55.03,1.53c1.22-.01,1.54-.01,1.75-.01.06-.4.14-.77.19-1.02l1.32.24c-.02.22-.08.48-.14.77.59,0,1.16,0,1.74.01-.01.61-.04,2.27-.08,2.95h-3.05c0,.14-.01.29-.01.43,1.26-.02,2.35-.04,3.48,0-.01.6-.06,2.25-.07,3.06-1.72-.01-3.42-.01-5.13,0-.02-1.88-.02-4.01.01-6.43ZM58.66,6.64c0-.16.01-.3.01-.44-.65,0-1.24,0-1.92.02,0,.14,0,.28.01.42h1.9ZM58.3,3.27l.04-.46c-.53,0-1.02,0-1.56.01v.44h1.52ZM64.98,9.41c.91-1.95,1.03-3.08,1.16-4.86-.23,0-.47.01-.72.01-.26,1.57-.56,3.12-.85,4.34l-1.68-.41c.26-1,.56-2.42.82-3.9l-1.12.04-.04-1.73c.46-.04.94-.06,1.43-.1.07-.55.14-1.08.19-1.58l1.71.17-.18,1.35c.77-.01,1.52-.01,2.18.02-.11,3.95-.28,4.68-1.25,7.22l-1.67-.59ZM68.28,2.97h1.04c1.63-.04,2.06-.02,3.45-.02-.01.67-.07,4.07-.08,6.04h-.53c-1.15-.01-1.8-.01-3.35,0h-.42c-.05-2.08-.1-4.33-.12-6.02ZM71.04,7.4c.04-1.18.06-2.19.08-2.85-.4,0-.82.01-1.16.02.01.86.04,1.86.05,2.83h1.03ZM9.05,1.93l-.27-1.07h-4.69l-.24,1.07H.5v8.18h11.89V1.93h-3.34ZM9.99,7.6l-.46.22.07.5c.02.18-.2.29-.33.16l-.35-.37-.46.22c-.17.08-.34-.1-.25-.26l.11-.21c-.48.49-1.14.8-1.88.8-1.45,0-2.63-1.18-2.63-2.63s1.18-2.63,2.63-2.63,2.63,1.18,2.63,2.63c0,.2-.03.39-.07.58v-.02c.1-.16.35-.12.37.07l.07.5.5.09c.18.03.21.28.05.36ZM8.11,7.25c-.13-.13,0-.35.17-.32l.32.06c.13-.3.21-.62.21-.97,0-1.31-1.06-2.37-2.37-2.37s-2.37,1.06-2.37,2.37,1.06,2.37,2.37,2.37c.76,0,1.43-.37,1.87-.92l-.21-.22ZM9.14,6.57l-.3.55-.62-.11c-.07-.01-.11.07-.07.12l.43.46-.3.55c-.03.06.03.13.09.1l.57-.27.43.46c.05.05.13.01.12-.06l-.08-.62.57-.27c.06-.03.05-.12-.02-.14l-.62-.11-.08-.62c0-.07-.1-.09-.14-.02Z"/>
      <path class="cls-1" d="M15.16.97c2.53-.08,4.13-.11,5.54-.11,1.26,0,2.49.02,3.63.1-.04,1.25-.05,2.46-.19,3.35l-1.94-.18c.05-.52.13-1.02.16-1.62-1.55-.05-3.12-.01-5.28.07.01.6.02,1.22.05,1.71l-1.86.05c-.07-.86-.1-2.31-.11-3.37ZM19.57,10.02c.16-.3.28-.62.37-.95-1.43.04-2.82.06-4.05.1l.02-1.63c1.4-.04,2.87-.07,4.33-.1.01-.18.04-.36.04-.54-.72,0-1.62.02-2.94.06.08-1.26.2-2.72.32-3.98h1.62c-.01.18-.04.37-.05.58.92-.07,1.68-.11,2.59-.12v1.38c-1.02.02-1.81.06-2.71.12-.01.2-.02.4-.05.59l3.02-.06c.04.6.01,1.28-.06,1.97.64-.01,1.27,0,1.88,0v1.61c-.67,0-1.39,0-2.13.01-.12.59-.28,1.12-.46,1.5l-1.75-.53ZM27.6,8.02h8.26v1.44h-1.2c.16.24.3.44.47.7l-1.45.61c-.3-.44-.6-.92-.84-1.31h-2.22c-.28.5-.42.85-.62,1.29l-1.52-.47c.16-.3.26-.54.4-.83h-1.27v-1.44ZM28.95,3.08c1.39-.01,1.64-.01,1.83-.01,0-.18-.01-.34-.02-.48h-2.45v-1.44h2.42v-.47h1.75c0,.18,0,.32-.01.47h2.79v1.44h-2.77c0,.13.01.29.02.46.72,0,1.4.01,2.11.02-.01.98-.05,4.13-.08,4.57h-5.47c-.06-1.37-.12-3.29-.13-4.56ZM32.89,4.59c.01-.13.01-.25.01-.35-.76-.01-1.42,0-2.21.04v.31h2.19ZM30.72,5.53c.8-.01,1.45-.01,2.15,0,.01-.12.01-.24.01-.35h-2.17c.01.12.01.24.01.35ZM30.75,6.47h2.1c0-.12.01-.23.01-.35h-2.12c.01.12.01.24.01.35ZM41.33,8.36c-.07-.78.37-1.62,1.28-2.4-.23-.11-.48-.19-.79-.28.08-.72.14-1.29.2-1.81-.46,0-.95-.01-1.51-.02l.08-1.82h1.62c.04-.32.07-.64.1-.92l1.98.13c-.04.24-.06.49-.1.76.5-.01,1-.04,1.49-.07l.05,1.79c-.52.05-1.13.08-1.77.11-.05.34-.08.65-.12.95.14.06.25.11.36.16.58-.3,1.12-.53,1.67-.72l.46,1.73c-.19.06-.38.13-.59.2.25.32.42.55.56.77l-1.4,1.08c-.26-.38-.54-.72-.82-1-.59.37-.92.76-.91,1.04.02.54,1.09.67,3.08.44l.04,1.79c-.46.05-.89.07-1.3.07-2.23,0-3.54-.71-3.66-1.97ZM51.02,8.91l.78-1.61c.19.1.37.18.55.26.13-.24.23-.44.29-.61-.22-.17-.46-.32-.71-.5.11-.29.2-.65.3-.89h-1.07s-.07-1.7-.07-1.7c.94-.06,1.94-.04,2.88,0-.11.76-.26,1.3-.49,2.13.25.22.53.47.89.77-.26.65-.4.98-.6,1.43,1.76.67,3.17.72,6.39.2l.34,1.76c-1.5.23-2.71.34-3.77.34-2.19,0-3.68-.5-5.71-1.58ZM51.23,2.64l.43-1.62c.55.12,1.69.37,2.22.54l-.41,1.62c-.59-.13-1.68-.42-2.24-.54ZM55.03,1.53c1.22-.01,1.54-.01,1.75-.01.06-.4.14-.77.19-1.02l1.32.24c-.02.22-.08.48-.14.77.59,0,1.16,0,1.74.01-.01.61-.04,2.27-.08,2.95h-3.05c0,.14-.01.29-.01.43,1.26-.02,2.35-.04,3.48,0-.01.6-.06,2.25-.07,3.06-1.72-.01-3.42-.01-5.13,0-.02-1.88-.02-4.01.01-6.43ZM58.66,6.64c0-.16.01-.3.01-.44-.65,0-1.24,0-1.92.02,0,.14,0,.28.01.42h1.9ZM58.3,3.27l.04-.46c-.53,0-1.02,0-1.56.01v.44h1.52ZM64.98,9.41c.91-1.95,1.03-3.08,1.16-4.86-.23,0-.47.01-.72.01-.26,1.57-.56,3.12-.85,4.34l-1.68-.41c.26-1,.56-2.42.82-3.9l-1.12.04-.04-1.73c.46-.04.94-.06,1.43-.1.07-.55.14-1.08.19-1.58l1.71.17-.18,1.35c.77-.01,1.52-.01,2.18.02-.11,3.95-.28,4.68-1.25,7.22l-1.67-.59ZM68.28,2.97h1.04c1.63-.04,2.06-.02,3.45-.02-.01.67-.07,4.07-.08,6.04h-.53c-1.15-.01-1.8-.01-3.35,0h-.42c-.05-2.08-.1-4.33-.12-6.02ZM71.04,7.4c.04-1.18.06-2.19.08-2.85-.4,0-.82.01-1.16.02.01.86.04,1.86.05,2.83h1.03ZM9.05,1.93l-.27-1.07h-4.69l-.24,1.07H.5v8.18h11.89V1.93h-3.34ZM9.99,7.6l-.46.22.07.5c.02.18-.2.29-.33.16l-.35-.37-.46.22c-.17.08-.34-.1-.25-.26l.11-.21c-.48.49-1.14.8-1.88.8-1.45,0-2.63-1.18-2.63-2.63s1.18-2.63,2.63-2.63,2.63,1.18,2.63,2.63c0,.2-.03.39-.07.58v-.02c.1-.16.35-.12.37.07l.07.5.5.09c.18.03.21.28.05.36ZM8.11,7.25c-.13-.13,0-.35.17-.32l.32.06c.13-.3.21-.62.21-.97,0-1.31-1.06-2.37-2.37-2.37s-2.37,1.06-2.37,2.37,1.06,2.37,2.37,2.37c.76,0,1.43-.37,1.87-.92l-.21-.22ZM9.14,6.57l-.3.55-.62-.11c-.07-.01-.11.07-.07.12l.43.46-.3.55c-.03.06.03.13.09.1l.57-.27.43.46c.05.05.13.01.12-.06l-.08-.62.57-.27c.06-.03.05-.12-.02-.14l-.62-.11-.08-.62c0-.07-.1-.09-.14-.02Z"/>
    </g>
  </g>
</svg>