<?xml version="1.0" encoding="UTF-8"?>
<svg id="_レイヤー_2" data-name="レイヤー_2" xmlns="http://www.w3.org/2000/svg" viewBox="0 0 41.72 24.93">
  <defs>
    <style>
      .cls-1 {
        fill: #80c58f;
      }

      .cls-2 {
        fill: #fff;
        stroke: #80c58f;
        stroke-width: .64px;
      }

      .cls-2, .cls-3 {
        stroke-miterlimit: 10;
      }

      .cls-3 {
        fill: none;
        stroke: #fff;
        stroke-width: 2px;
      }
    </style>
  </defs>
  <g id="_レイヤー_1-2" data-name="レイヤー_1">
    <rect class="cls-3" x="1" y="1" width="39.72" height="22.93" rx="4.22" ry="4.22"/>
    <rect class="cls-2" x="1" y="1" width="39.72" height="22.93" rx="4.22" ry="4.22"/>
    <g>
      <path class="cls-1" d="M8.98,15.45c-.37.07-.74.14-1.1.2l-.33-2.02c.41-.09.88-.17,1.39-.27-.01-.73-.03-1.45-.04-2.16-.47,0-.85.01-1.11.01l-.03-1.99c.38-.01.75-.01,1.12-.03,0-.78,0-1.48.01-1.99h2.01c-.01.46-.01,1.14,0,1.95.41,0,.83-.01,1.25-.01l.06,1.99c-.4.01-.84.03-1.29.03.01.58.01,1.2.03,1.79.46-.1.88-.21,1.25-.31l.41,1.96c-.5.14-1.05.3-1.62.43.03,1.12.06,2.12.07,2.76l-2.02.06c-.03-.6-.04-1.44-.07-2.39ZM12.3,11.92c1.15-1.56,1.32-2.49,1.32-4.44l1.98-.07c.8-.01,1.61-.03,2.92-.01-.04,1.02-.06,1.75,0,2.75.47,0,.75-.07,1.17-.14l.13,2.01c-.97.18-2.18.28-3.16.2-.13-1.45-.18-2.02-.2-2.83-.31-.01-.55.01-.94.04-.13,1.29-.47,2.06-1.22,3.24l-1.99-.74ZM13.81,17.25c.33-.24.64-.48.92-.73-.31-.21-.61-.43-.92-.65l1-1.25c-.53.03-1.04.07-1.55.11l-.1-1.95c1.83-.07,4.14-.14,5.82-.06-.06,1.31-.51,2.46-1.17,3.43.46.19.94.36,1.45.51l-.67,1.72c-.71-.24-1.35-.5-1.96-.78-.36.36-.71.67-1.08.97l-1.74-1.32ZM16,15.25c.17-.23.33-.47.46-.71-.46.01-.92.03-1.39.06.3.23.61.44.94.65Z"/>
      <path class="cls-1" d="M32.23,14.72c-1.01-.03-2.22-.01-3.49.03l.09,3.5h-1.84c-.04-1.19-.1-2.59-.14-3.94l-.7.95c-.28-.21-.48-.38-.67-.57,0,1.28.01,2.43.04,3.31h-1.98l-.04-2.97c-.28.33-.55.64-.98,1.07l-1.01-1.28c.73-.65,1.17-1.14,1.99-2.16v-.03c-.63.04-1.19.07-1.62.11l-.11-1.95c.44-.04.98-.07,1.74-.13v-.98c-.44.13-.67.19-.87.26l-.53-1.84c1.01-.28,1.89-.51,3.9-1l.44,1.83c-.31.07-.64.14-.97.23-.01.27-.01.5-.01,1.41.54-.03,1.07-.04,1.49-.04v1.93c-.37.01-.91.03-1.49.06v.07c.46.48.75.74,1.37,1.17,0-.31-.01-.61-.01-.91,1.78-.06,4.55-.06,7.34-.03-.01,1.37-.1,3.97-.13,5.45h-1.91c.06-1.51.09-2.62.1-3.56ZM27.42,7.25l2.08-.09c0-.26,0-.41-.03-.71l1.82-.1.03.75c.85-.01,1.69-.03,2.42-.03v1.99c-3.19.03-5.04.07-6.23.16l-.09-1.98ZM28.09,9.5c2.08-.03,4.01-.04,4.94-.03-.01.58-.06,2.63-.07,2.94h-4.77c-.07-1.31-.1-2.29-.1-2.92ZM29.18,15.31c1.39-.03,1.85-.04,2.57-.03-.01.68-.06,2.11-.07,2.38h-2.4c-.06-1.32-.09-1.82-.1-2.35ZM31.57,11.17c.01-.1.01-.17.01-.43-.64-.01-1.35-.01-2.01,0,0,.27,0,.34.01.44.78-.01,1.52-.03,1.98-.01ZM30.73,16.7c0-.16.01-.3.01-.46-.19,0-.34.01-.5.01.01.09.01.14.01.44h.47Z"/>
    </g>
  </g>
</svg>