<?xml version="1.0" encoding="UTF-8"?>
<svg id="_レイヤー_2" data-name="レイヤー_2" xmlns="http://www.w3.org/2000/svg" viewBox="0 0 97.09 24.93">
  <defs>
    <style>
      .cls-1 {
        fill: #80c58f;
      }

      .cls-2 {
        fill: #fff;
        stroke: #80c58f;
        stroke-width: .64px;
      }

      .cls-2, .cls-3 {
        stroke-miterlimit: 10;
      }

      .cls-3 {
        fill: none;
        stroke: #fff;
        stroke-width: 2px;
      }
    </style>
  </defs>
  <g id="_レイヤー_1-2" data-name="レイヤー_1">
    <path class="cls-3" d="M1,1h85.3c5.4,0,9.79,4.39,9.79,9.79v13.15H10.79c-5.4,0-9.79-4.39-9.79-9.79V1h0Z"/>
    <path class="cls-2" d="M1,1h85.3c5.4,0,9.79,4.39,9.79,9.79v13.15H10.79c-5.4,0-9.79-4.39-9.79-9.79V1h0Z"/>
    <g>
      <path class="cls-1" d="M10.38,15.09c.71-.79,1.87-2.9,2.31-4.16-1.46.01-3.73.1-4.74.17l-.25-2.07c2.63-.13,4.15-.18,5.54-.18.68,0,1.34.01,2.09.04-.17,2.43-1.61,5.7-3.2,7.41l-1.75-1.2Z"/>
      <path class="cls-1" d="M24.14,13.53c.48-.52.74-.98.84-1.48-1.18-.01-3.85.06-4.45.12l-.16-1.78c.62-.1,2.24-.16,4.11-.16,1.06,0,2.04.02,2.53.06,0,.08.01.18.01.28,0,1.51-.59,2.96-1.57,3.87l-1.32-.92ZM21.59,16.23c.35-.89.49-1.94.43-3.3l1.76-.05c.17,1.08.02,2.61-.37,3.77l-1.82-.42Z"/>
      <path class="cls-1" d="M34.86,12.77c-.78.53-1.51.92-2.15,1.14l-1.14-1.86c1.73-.65,4.68-3.07,5.61-4.58l1.43,1.71c-.42.8-1.77,2.16-3.21,3.2l1.62-.12c.04,1.43.08,2.87.04,4.25h-2.17c.01-1.03-.01-2.72-.02-3.74Z"/>
      <path class="cls-1" d="M43.01,14.59c.47-.96.94-3.79.91-5.24l2.13.25c.02,1.7-.46,4.29-1.1,5.8l-1.94-.82ZM47.78,8.47l2.13.25c-.12.84-.29,3.49-.19,4.13.38-.12,1.44-.53,1.8-.74l.85,2.02c-.96.46-3.24,1.26-4.57,1.6-.35-1.19-.23-5.9-.02-7.24Z"/>
      <path class="cls-1" d="M57.18,14.7c-.07-.78.37-1.62,1.28-2.4-.23-.11-.48-.19-.79-.28.08-.72.14-1.29.2-1.81-.46,0-.95-.01-1.51-.02l.08-1.82h1.62c.04-.32.07-.64.1-.92l1.98.13c-.04.24-.06.49-.1.76.5-.01,1-.04,1.49-.07l.05,1.79c-.52.05-1.13.08-1.77.11-.05.34-.08.65-.12.95.14.06.25.11.36.16.58-.3,1.12-.53,1.67-.72l.46,1.73c-.19.06-.38.13-.59.2.25.32.42.55.56.77l-1.4,1.08c-.26-.38-.54-.72-.82-1-.59.37-.92.76-.91,1.04.02.54,1.09.67,3.08.44l.04,1.79c-.46.05-.89.07-1.3.07-2.23,0-3.54-.71-3.66-1.97Z"/>
      <path class="cls-1" d="M66.87,15.25l.78-1.61c.19.1.37.18.55.26.13-.24.23-.44.29-.61-.22-.17-.46-.32-.71-.5.11-.29.2-.65.3-.89h-1.07s-.07-1.7-.07-1.7c.94-.06,1.94-.04,2.88,0-.11.76-.26,1.3-.49,2.13.25.22.53.47.89.77-.26.65-.4.98-.6,1.43,1.76.67,3.17.72,6.39.2l.34,1.76c-1.5.23-2.71.34-3.77.34-2.19,0-3.68-.5-5.71-1.58ZM67.08,8.98l.43-1.62c.55.12,1.69.37,2.22.54l-.41,1.62c-.59-.13-1.68-.42-2.24-.54ZM70.49,9.63c-.05-.58-.04-.88-.06-1.44h1.51c0-.11-.01-.22-.01-.34-.53.01-1.04,0-1.55,0v-1.02s2.71,0,2.71,0c.01.77.01,1.26.01,1.97h-1.49c0,.1.01.19.02.3.65-.01,1.04-.06,1.64-.14l.16,1.1c-.65.1-1.22.18-1.94.18-.65,0-.97-.14-1.01-.61ZM71.03,14.42c.23-.43.37-.68.56-.96l-1.09.04v-1.16l1.06-.04c0-.11-.01-.22-.01-.34-.23.01-.46.01-.67.02v-1.07c.2,0,.41-.01.61-.01,0-.18-.01-.34-.01-.47l1.56-.05c0,.13.01.3.02.47.34,0,.68-.01,1.03-.01v-.44h1.56v.41c.17,0,.34-.01.5-.01v1.07c-.16,0-.32,0-.5.01v.34h.94v1.15c-.29.01-.62.01-1,.02.2.26.35.47.61.83l-1.3.61c-.28-.44-.41-.66-.66-1.04l.92-.4c-.95.02-2.04.05-3.06.06l.84.31c-.25.38-.42.72-.67,1.13l-1.25-.47ZM74.09,12.24v-.34c-.32.01-.65.01-.98.02,0,.11.01.23.01.34.32-.01.65-.01.97-.02ZM73.65,9.59c-.06-.41-.07-.89-.1-1.44h1.56c0-.12-.01-.23-.01-.35-.5.01-.97,0-1.49,0v-1.03s2.7,0,2.7,0c.01.78.01,1.2.01,2h-1.6c0,.08,0,.18.01.28.71,0,1.12-.02,1.76-.22l.19,1.13c-.66.19-1.54.25-2.04.25-.68,0-.94-.14-1.01-.62Z"/>
      <path class="cls-1" d="M79.63,14.49c-.32.07-.64.13-.94.18l-.28-1.7,1.18-.24c-.01-.6-.02-1.21-.02-1.81-.46,0-.84.01-1.07.01l-.02-1.68c.36-.01.72-.02,1.07-.02,0-.72,0-1.34.01-1.8h1.69c-.01.41-.01,1.03,0,1.76.3,0,.61-.01.94-.01l.05,1.68c-.3.01-.64.01-.97.02.01.49.02,1,.02,1.49.34-.08.65-.16.94-.24l.35,1.65c-.4.12-.82.23-1.25.34l.06,2.23-1.7.05c-.01-.48-.04-1.14-.05-1.91ZM82.12,15.51c.74-1.48,1.09-2.47,1.1-6.27v-1.34c1.56-.06,3.6-.12,5.03-.1-.02,1.2-.08,2.94-.18,4.45-1.1,0-2.23.04-3.21.1-.2,1.75-.6,2.89-1.21,4.07l-1.52-.9ZM86.6,10.76c.02-.4.05-.77.06-1.1-.47,0-1.04.01-1.67.02-.01.4-.01.78-.04,1.14.53-.02,1.1-.05,1.64-.06ZM85.87,13.07l1.69-.35c.26,1.19.48,1.76,1.24,2.85l-1.46.88c-.9-1.48-1.12-2.07-1.46-3.38Z"/>
    </g>
  </g>
</svg>