<?xml version="1.0" encoding="UTF-8"?>
<svg id="_レイヤー_2" data-name="レイヤー_2" xmlns="http://www.w3.org/2000/svg" viewBox="0 0 88.28 70.47">
  <defs>
    <style>
      .cls-1 {
        fill: #ed7580;
      }
    </style>
  </defs>
  <g id="heart_x5F_line">
    <path class="cls-1" d="M24.99,4c6.22,0,12.09,2.73,16.08,7.48.76.9,1.88,1.43,3.06,1.43s2.3-.52,3.06-1.43c4-4.76,9.86-7.48,16.08-7.48,2.75,0,5.45.54,8.02,1.6,10.7,4.43,15.8,16.74,11.37,27.44-3.47,8.37-24.64,23.97-36.47,31.99-1.25.85-2.89.85-4.14,0-11.83-8.02-33-23.61-36.47-31.99-4.43-10.7.67-23.01,11.37-27.44,2.57-1.06,5.27-1.6,8.02-1.6M24.99,0c-3.19,0-6.43.61-9.55,1.91C2.68,7.19-3.37,21.82,1.91,34.57c4.53,10.94,32.38,30.07,40.19,35.28,1.23.82,2.84.82,4.08,0,7.82-5.21,35.66-24.34,40.19-35.28,5.28-12.76-.77-27.38-13.53-32.66C69.71.61,66.47,0,63.29,0,55.95,0,48.9,3.25,44.14,8.91,39.38,3.25,32.33,0,24.99,0h0Z"/>
  </g>
</svg>