<?xml version="1.0" encoding="UTF-8"?>
<svg xmlns="http://www.w3.org/2000/svg" version="1.1" viewBox="0 0 88.3 70.5">
  <defs>
    <style>
      .cls-1 {
        fill: #ed7580;
      }

      .cls-2 {
        fill: #fff;
      }
    </style>
  </defs>
  <!-- Generator: Adobe Illustrator 28.7.1, SVG Export Plug-In . SVG Version: 1.2.0 Build 142)  -->
  <g>
    <g id="_レイヤー_2">
      <path class="cls-2" d="M44.1,11.2S32.6-1.7,20.9,2.7-1.7,19.7,3.2,32.4s40.9,35.7,40.9,35.7c0,0,49.1-26.9,41.8-47.2S63.7-3.8,44.1,11.2Z"/>
      <g id="heart_x5F_line">
        <path class="cls-1" d="M25,4c6.2,0,12.1,2.7,16.1,7.5.8.9,1.9,1.4,3.1,1.4s2.3-.5,3.1-1.4c4-4.8,9.9-7.5,16.1-7.5s5.4.5,8,1.6c10.7,4.4,15.8,16.7,11.4,27.4-3.5,8.4-24.6,24-36.5,32-1.2.8-2.9.8-4.1,0-11.8-8-33-23.6-36.5-32-4.4-10.7.7-23,11.4-27.4,2.6-1.1,5.3-1.6,8-1.6M25,0C21.8,0,18.6.6,15.4,1.9,2.7,7.2-3.4,21.8,1.9,34.6c4.5,10.9,32.4,30.1,40.2,35.3,1.2.8,2.8.8,4.1,0,7.8-5.2,35.7-24.3,40.2-35.3,5.3-12.8-.8-27.4-13.5-32.7C69.7.6,66.5,0,63.3,0,56,0,48.9,3.3,44.1,8.9,39.4,3.3,32.3,0,25,0h0Z"/>
      </g>
    </g>
  </g>
</svg>