<?xml version="1.0" encoding="UTF-8"?>
<svg id="_レイヤー_2" data-name="レイヤー_2" xmlns="http://www.w3.org/2000/svg" viewBox="0 0 86.47 86.55">
  <defs>
    <style>
      .cls-1 {
        stroke: #fff;
        stroke-width: 8px;
      }

      .cls-1, .cls-2, .cls-3 {
        stroke-linecap: round;
        stroke-linejoin: round;
      }

      .cls-1, .cls-3 {
        fill: #f3abca;
      }

      .cls-4, .cls-2 {
        fill: #fff;
      }

      .cls-2 {
        stroke-width: 6px;
      }

      .cls-2, .cls-3 {
        stroke: #f3abca;
      }

      .cls-3 {
        stroke-width: 16px;
      }
    </style>
  </defs>
  <g id="precious_x5F_line">
    <g>
      <path class="cls-3" d="M30.35,24.65H13.48c-3.51,0-5.48-1.61-5.48-5.26s1.9-5.26,5.48-5.26h9.06c-.22-.58-.44-1.17-.44-1.75,0-4.02,4.89-4.38,7.89-4.38,7.16,0,7.16,3.8,7.45,5.7,0,.07.07.29.07.44h11.39c.66-1.9.95-2.48,1.53-3.65.8-1.61,2.78-2.48,5.92-2.48,2.63,0,8.47.51,8.47,4.02,0,.58-.15,1.02-.73,2.12h8.84c3.58,0,5.55,1.53,5.55,5.26s-2.04,5.26-5.55,5.26h-18.91v2.05h10.81c8.84,0,10.3,1.39,10.3,10.15v6.94c0,6.94-.51,10.08-8.33,10.22v1.75h6.21c3.36,0,5.48,1.53,5.48,5.11s-2.04,5.19-5.48,5.19h-6.21v2.92c0,4.02-.8,8.25-5.48,9.06-3.07.51-8.54.51-11.76.51-1.9,0-5.33-.07-7.3-.22-3.07-.22-4.53-2.34-4.53-5.4,0-5.19,4.24-5.26,6.94-5.26,2.26,0,4.53.15,6.79.15,1.46,0,1.61-.07,1.61-1.17v-.58h-19.57c1.31,1.31,2.48,2.99,2.48,4.89,0,3.8-4.89,7.23-8.84,7.23-2.99,0-3.8-1.83-7.08-5.26-1.1-1.1-2.05-2.19-2.05-3.8,0-1.24.44-2.19,1.17-3.07h-5.77c-3.51,0-5.4-1.61-5.4-5.19s1.97-5.11,5.4-5.11h39.66v-1.75h-31.62c-8.76,0-10.22-1.39-10.22-10.22v-6.94c0-8.76,1.46-10.15,10.22-10.15h8.91v-2.05ZM26.92,42.11c-.88-.95-1.53-2.12-1.53-3.43,0-2.04,1.31-3.07,3.07-4.02.66-.36,1.1-1.17,1.39-1.9h-4.67c-.58,0-.88.36-.88.88v8.47h2.63ZM24.29,46.34v1.17c0,.51.37.88.88.88h36c.51,0,.8-.29.8-.88v-1.17H24.29ZM61.97,39.48c-1.02.88-1.75,1.02-3.43,1.1-1.61.07-4.09.15-6.06.15h-1.83c-4.24,0-5.55-.22-6.72-2.26-.51-.95-.58-1.61-.58-2.41v-3.29h-2.56c-.73,3.8-2.7,7.52-6.21,9.35h27.39v-2.63ZM43.35,24.36h-2.34v2.34h2.34v-2.34ZM54.01,35.39c0,.29.07.51.44.51h.8c.66,0,.66-.29.66-.44.37-1.75,2.48-1.83,3.94-1.83.73,0,1.46.07,2.12.29v-.29c0-.51-.29-.88-.8-.88h-7.16v2.63Z"/>
      <path class="cls-1" d="M30.35,24.65H13.48c-3.51,0-5.48-1.61-5.48-5.26s1.9-5.26,5.48-5.26h9.06c-.22-.58-.44-1.17-.44-1.75,0-4.02,4.89-4.38,7.89-4.38,7.16,0,7.16,3.8,7.45,5.7,0,.07.07.29.07.44h11.39c.66-1.9.95-2.48,1.53-3.65.8-1.61,2.78-2.48,5.92-2.48,2.63,0,8.47.51,8.47,4.02,0,.58-.15,1.02-.73,2.12h8.84c3.58,0,5.55,1.53,5.55,5.26s-2.04,5.26-5.55,5.26h-18.91v2.05h10.81c8.84,0,10.3,1.39,10.3,10.15v6.94c0,6.94-.51,10.08-8.33,10.22v1.75h6.21c3.36,0,5.48,1.53,5.48,5.11s-2.04,5.19-5.48,5.19h-6.21v2.92c0,4.02-.8,8.25-5.48,9.06-3.07.51-8.54.51-11.76.51-1.9,0-5.33-.07-7.3-.22-3.07-.22-4.53-2.34-4.53-5.4,0-5.19,4.24-5.26,6.94-5.26,2.26,0,4.53.15,6.79.15,1.46,0,1.61-.07,1.61-1.17v-.58h-19.57c1.31,1.31,2.48,2.99,2.48,4.89,0,3.8-4.89,7.23-8.84,7.23-2.99,0-3.8-1.83-7.08-5.26-1.1-1.1-2.05-2.19-2.05-3.8,0-1.24.44-2.19,1.17-3.07h-5.77c-3.51,0-5.4-1.61-5.4-5.19s1.97-5.11,5.4-5.11h39.66v-1.75h-31.62c-8.76,0-10.22-1.39-10.22-10.22v-6.94c0-8.76,1.46-10.15,10.22-10.15h8.91v-2.05ZM26.92,42.11c-.88-.95-1.53-2.12-1.53-3.43,0-2.04,1.31-3.07,3.07-4.02.66-.36,1.1-1.17,1.39-1.9h-4.67c-.58,0-.88.36-.88.88v8.47h2.63ZM24.29,46.34v1.17c0,.51.37.88.88.88h36c.51,0,.8-.29.8-.88v-1.17H24.29ZM61.97,39.48c-1.02.88-1.75,1.02-3.43,1.1-1.61.07-4.09.15-6.06.15h-1.83c-4.24,0-5.55-.22-6.72-2.26-.51-.95-.58-1.61-.58-2.41v-3.29h-2.56c-.73,3.8-2.7,7.52-6.21,9.35h27.39v-2.63ZM43.35,24.36h-2.34v2.34h2.34v-2.34ZM54.01,35.39c0,.29.07.51.44.51h.8c.66,0,.66-.29.66-.44.37-1.75,2.48-1.83,3.94-1.83.73,0,1.46.07,2.12.29v-.29c0-.51-.29-.88-.8-.88h-7.16v2.63Z"/>
      <path class="cls-2" d="M30.35,24.65H13.48c-3.51,0-5.48-1.61-5.48-5.26s1.9-5.26,5.48-5.26h9.06c-.22-.58-.44-1.17-.44-1.75,0-4.02,4.89-4.38,7.89-4.38,7.16,0,7.16,3.8,7.45,5.7,0,.07.07.29.07.44h11.39c.66-1.9.95-2.48,1.53-3.65.8-1.61,2.78-2.48,5.92-2.48,2.63,0,8.47.51,8.47,4.02,0,.58-.15,1.02-.73,2.12h8.84c3.58,0,5.55,1.53,5.55,5.26s-2.04,5.26-5.55,5.26h-18.91v2.05h10.81c8.84,0,10.3,1.39,10.3,10.15v6.94c0,6.94-.51,10.08-8.33,10.22v1.75h6.21c3.36,0,5.48,1.53,5.48,5.11s-2.04,5.19-5.48,5.19h-6.21v2.92c0,4.02-.8,8.25-5.48,9.06-3.07.51-8.54.51-11.76.51-1.9,0-5.33-.07-7.3-.22-3.07-.22-4.53-2.34-4.53-5.4,0-5.19,4.24-5.26,6.94-5.26,2.26,0,4.53.15,6.79.15,1.46,0,1.61-.07,1.61-1.17v-.58h-19.57c1.31,1.31,2.48,2.99,2.48,4.89,0,3.8-4.89,7.23-8.84,7.23-2.99,0-3.8-1.83-7.08-5.26-1.1-1.1-2.05-2.19-2.05-3.8,0-1.24.44-2.19,1.17-3.07h-5.77c-3.51,0-5.4-1.61-5.4-5.19s1.97-5.11,5.4-5.11h39.66v-1.75h-31.62c-8.76,0-10.22-1.39-10.22-10.22v-6.94c0-8.76,1.46-10.15,10.22-10.15h8.91v-2.05ZM26.92,42.11c-.88-.95-1.53-2.12-1.53-3.43,0-2.04,1.31-3.07,3.07-4.02.66-.36,1.1-1.17,1.39-1.9h-4.67c-.58,0-.88.36-.88.88v8.47h2.63ZM24.29,46.34v1.17c0,.51.37.88.88.88h36c.51,0,.8-.29.8-.88v-1.17H24.29ZM61.97,39.48c-1.02.88-1.75,1.02-3.43,1.1-1.61.07-4.09.15-6.06.15h-1.83c-4.24,0-5.55-.22-6.72-2.26-.51-.95-.58-1.61-.58-2.41v-3.29h-2.56c-.73,3.8-2.7,7.52-6.21,9.35h27.39v-2.63ZM43.35,24.36h-2.34v2.34h2.34v-2.34ZM54.01,35.39c0,.29.07.51.44.51h.8c.66,0,.66-.29.66-.44.37-1.75,2.48-1.83,3.94-1.83.73,0,1.46.07,2.12.29v-.29c0-.51-.29-.88-.8-.88h-7.16v2.63Z"/>
      <path class="cls-4" d="M30.35,24.65H13.48c-3.51,0-5.48-1.61-5.48-5.26s1.9-5.26,5.48-5.26h9.06c-.22-.58-.44-1.17-.44-1.75,0-4.02,4.89-4.38,7.89-4.38,7.16,0,7.16,3.8,7.45,5.7,0,.07.07.29.07.44h11.39c.66-1.9.95-2.48,1.53-3.65.8-1.61,2.78-2.48,5.92-2.48,2.63,0,8.47.51,8.47,4.02,0,.58-.15,1.02-.73,2.12h8.84c3.58,0,5.55,1.53,5.55,5.26s-2.04,5.26-5.55,5.26h-18.91v2.05h10.81c8.84,0,10.3,1.39,10.3,10.15v6.94c0,6.94-.51,10.08-8.33,10.22v1.75h6.21c3.36,0,5.48,1.53,5.48,5.11s-2.04,5.19-5.48,5.19h-6.21v2.92c0,4.02-.8,8.25-5.48,9.06-3.07.51-8.54.51-11.76.51-1.9,0-5.33-.07-7.3-.22-3.07-.22-4.53-2.34-4.53-5.4,0-5.19,4.24-5.26,6.94-5.26,2.26,0,4.53.15,6.79.15,1.46,0,1.61-.07,1.61-1.17v-.58h-19.57c1.31,1.31,2.48,2.99,2.48,4.89,0,3.8-4.89,7.23-8.84,7.23-2.99,0-3.8-1.83-7.08-5.26-1.1-1.1-2.05-2.19-2.05-3.8,0-1.24.44-2.19,1.17-3.07h-5.77c-3.51,0-5.4-1.61-5.4-5.19s1.97-5.11,5.4-5.11h39.66v-1.75h-31.62c-8.76,0-10.22-1.39-10.22-10.22v-6.94c0-8.76,1.46-10.15,10.22-10.15h8.91v-2.05ZM26.92,42.11c-.88-.95-1.53-2.12-1.53-3.43,0-2.04,1.31-3.07,3.07-4.02.66-.36,1.1-1.17,1.39-1.9h-4.67c-.58,0-.88.36-.88.88v8.47h2.63ZM24.29,46.34v1.17c0,.51.37.88.88.88h36c.51,0,.8-.29.8-.88v-1.17H24.29ZM61.97,39.48c-1.02.88-1.75,1.02-3.43,1.1-1.61.07-4.09.15-6.06.15h-1.83c-4.24,0-5.55-.22-6.72-2.26-.51-.95-.58-1.61-.58-2.41v-3.29h-2.56c-.73,3.8-2.7,7.52-6.21,9.35h27.39v-2.63ZM43.35,24.36h-2.34v2.34h2.34v-2.34ZM54.01,35.39c0,.29.07.51.44.51h.8c.66,0,.66-.29.66-.44.37-1.75,2.48-1.83,3.94-1.83.73,0,1.46.07,2.12.29v-.29c0-.51-.29-.88-.8-.88h-7.16v2.63Z"/>
    </g>
  </g>
</svg>