<?xml version="1.0" encoding="UTF-8"?>
<svg xmlns="http://www.w3.org/2000/svg" version="1.1" viewBox="0 0 91.9 88.4">
  <defs>
    <style>
      .cls-1 {
        fill: #fff;
      }

      .cls-2 {
        fill: #f6b064;
      }
    </style>
  </defs>
  <!-- Generator: Adobe Illustrator 28.7.1, SVG Export Plug-In . SVG Version: 1.2.0 Build 142)  -->
  <g>
    <g id="_レイヤー_2">
      <path class="cls-1" d="M2.9,32.8s4.6-8.2,28.7-5.2c0,0,4.5-27.3,13.6-25.4s15.9,25.4,15.9,25.4c0,0,31.5-2.7,28.1,6.5s8.4.6-19.6,20.8c0,0,12.3,29.1,3,29.5s-6,5-26.4-11.6c0,0-19.9,17.2-26.2,11.6s-3.8-10.9,1.9-28.4c0,0-24-15.6-18.9-23.2Z"/>
      <g id="star_x5F_line">
        <path class="cls-2" d="M46,4c2.3,0,5,1.2,6.1,4.4l6,18.6h0c.5,1.6,2.1,2.8,3.8,2.8h19.5c3.4,0,5.4,2.3,6.1,4.4.7,2.2.4,5.2-2.3,7.2l-15.8,11.5h0c-1.4,1-2,2.8-1.4,4.5h0l6,18.6c.8,2.6,0,4.5-.8,5.7-1.2,1.7-3.3,2.8-5.3,2.8s-2.6-.4-3.7-1.3l-15.8-11.5h0c-1.4-1-3.3-1-4.7,0h0l-15.8,11.5c-1.2.8-2.4,1.3-3.7,1.3-2,0-4.1-1.1-5.3-2.8-.9-1.2-1.7-3.1-.8-5.7l6-18.6h0c.5-1.7,0-3.5-1.5-4.5h0l-15.8-11.5c-2.8-2-3-5-2.3-7.2.7-2.2,2.7-4.4,6.1-4.4h19.5c1.7,0,3.3-1.1,3.8-2.8h0l6-18.6c1.1-3.3,3.8-4.4,6.1-4.4M46,0C41.8,0,37.6,2.4,36,7.2l-6,18.6H10.4c-10.1,0-14.3,12.9-6.1,18.9l15.8,11.5-6,18.6c-2.4,7.3,3.4,13.7,9.9,13.7s4.1-.6,6.1-2l15.8-11.5,15.8,11.5c2,1.4,4,2,6.1,2,6.5,0,12.3-6.4,9.9-13.7l-6-18.6,15.8-11.5c8.2-5.9,4-18.9-6.1-18.9h-19.5l-6-18.6C54.3,2.4,50.1,0,45.9,0h0Z"/>
      </g>
    </g>
  </g>
</svg>