<?xml version="1.0" encoding="UTF-8"?>
<svg id="_レイヤー_2" data-name="レイヤー_2" xmlns="http://www.w3.org/2000/svg" viewBox="0 0 91.9 88.43">
  <defs>
    <style>
      .cls-1 {
        fill: #f6b064;
      }
    </style>
  </defs>
  <g id="star_x5F_line">
    <path class="cls-1" d="M45.95,4c2.26,0,5.05,1.17,6.11,4.44l6.04,18.59h0c.54,1.65,2.07,2.76,3.8,2.76h19.55c3.44,0,5.41,2.29,6.11,4.44.7,2.15.45,5.16-2.33,7.18l-15.81,11.49h0c-1.4,1.02-1.99,2.82-1.45,4.47h0s6.04,18.59,6.04,18.59c.84,2.59.01,4.52-.83,5.69-1.24,1.71-3.28,2.77-5.31,2.77-1.32,0-2.58-.43-3.74-1.27l-15.81-11.49h0c-1.4-1.02-3.3-1.02-4.7,0h0s-15.81,11.49-15.81,11.49c-1.16.85-2.42,1.27-3.74,1.27-2.04,0-4.07-1.06-5.31-2.77-.85-1.16-1.68-3.1-.83-5.69l6.04-18.59h0c.54-1.65-.05-3.45-1.45-4.47h0s-15.81-11.49-15.81-11.49c-2.78-2.02-3.03-5.04-2.33-7.18.7-2.15,2.67-4.44,6.11-4.44h19.55c1.73,0,3.27-1.12,3.8-2.76h0s6.04-18.59,6.04-18.59c1.06-3.27,3.85-4.44,6.11-4.44M45.95,0c-4.18,0-8.35,2.4-9.92,7.2l-6.04,18.59H10.45c-10.1,0-14.3,12.92-6.13,18.86l15.81,11.49-6.04,18.59c-2.38,7.32,3.43,13.69,9.95,13.69,2.04,0,4.15-.62,6.09-2.04l15.81-11.49,15.81,11.49c1.95,1.41,4.05,2.04,6.09,2.04,6.52,0,12.33-6.38,9.95-13.69l-6.04-18.59,15.81-11.49c8.17-5.94,3.97-18.86-6.13-18.86h-19.55l-6.04-18.59c-1.56-4.8-5.74-7.2-9.92-7.2h0Z"/>
  </g>
</svg>